<svg viewBox="0 0 31 31" xmlns="http://www.w3.org/2000/svg" shape-rendering="crispEdges"><rect width="31" height="31" fill="#fff"></rect><g fill="#1B1A17"><rect x="3" y="3" width="1.02" height="1.02"></rect><rect x="4" y="3" width="1.02" height="1.02"></rect><rect x="5" y="3" width="1.02" height="1.02"></rect><rect x="6" y="3" width="1.02" height="1.02"></rect><rect x="7" y="3" width="1.02" height="1.02"></rect><rect x="8" y="3" width="1.02" height="1.02"></rect><rect x="9" y="3" width="1.02" height="1.02"></rect><rect x="11" y="3" width="1.02" height="1.02"></rect><rect x="12" y="3" width="1.02" height="1.02"></rect><rect x="15" y="3" width="1.02" height="1.02"></rect><rect x="17" y="3" width="1.02" height="1.02"></rect><rect x="21" y="3" width="1.02" height="1.02"></rect><rect x="22" y="3" width="1.02" height="1.02"></rect><rect x="23" y="3" width="1.02" height="1.02"></rect><rect x="24" y="3" width="1.02" height="1.02"></rect><rect x="25" y="3" width="1.02" height="1.02"></rect><rect x="26" y="3" width="1.02" height="1.02"></rect><rect x="27" y="3" width="1.02" height="1.02"></rect><rect x="3" y="4" width="1.02" height="1.02"></rect><rect x="9" y="4" width="1.02" height="1.02"></rect><rect x="13" y="4" width="1.02" height="1.02"></rect><rect x="16" y="4" width="1.02" height="1.02"></rect><rect x="17" y="4" width="1.02" height="1.02"></rect><rect x="19" y="4" width="1.02" height="1.02"></rect><rect x="21" y="4" width="1.02" height="1.02"></rect><rect x="27" y="4" width="1.02" height="1.02"></rect><rect x="3" y="5" width="1.02" height="1.02"></rect><rect x="5" y="5" width="1.02" height="1.02"></rect><rect x="6" y="5" width="1.02" height="1.02"></rect><rect x="7" y="5" width="1.02" height="1.02"></rect><rect x="9" y="5" width="1.02" height="1.02"></rect><rect x="11" y="5" width="1.02" height="1.02"></rect><rect x="14" y="5" width="1.02" height="1.02"></rect><rect x="16" y="5" width="1.02" height="1.02"></rect><rect x="18" y="5" width="1.02" height="1.02"></rect><rect x="21" y="5" width="1.02" height="1.02"></rect><rect x="23" y="5" width="1.02" height="1.02"></rect><rect x="24" y="5" width="1.02" height="1.02"></rect><rect x="25" y="5" width="1.02" height="1.02"></rect><rect x="27" y="5" width="1.02" height="1.02"></rect><rect x="3" y="6" width="1.02" height="1.02"></rect><rect x="5" y="6" width="1.02" height="1.02"></rect><rect x="6" y="6" width="1.02" height="1.02"></rect><rect x="7" y="6" width="1.02" height="1.02"></rect><rect x="9" y="6" width="1.02" height="1.02"></rect><rect x="12" y="6" width="1.02" height="1.02"></rect><rect x="13" y="6" width="1.02" height="1.02"></rect><rect x="15" y="6" width="1.02" height="1.02"></rect><rect x="16" y="6" width="1.02" height="1.02"></rect><rect x="17" y="6" width="1.02" height="1.02"></rect><rect x="18" y="6" width="1.02" height="1.02"></rect><rect x="21" y="6" width="1.02" height="1.02"></rect><rect x="23" y="6" width="1.02" height="1.02"></rect><rect x="24" y="6" width="1.02" height="1.02"></rect><rect x="25" y="6" width="1.02" height="1.02"></rect><rect x="27" y="6" width="1.02" height="1.02"></rect><rect x="3" y="7" width="1.02" height="1.02"></rect><rect x="5" y="7" width="1.02" height="1.02"></rect><rect x="6" y="7" width="1.02" height="1.02"></rect><rect x="7" y="7" width="1.02" height="1.02"></rect><rect x="9" y="7" width="1.02" height="1.02"></rect><rect x="12" y="7" width="1.02" height="1.02"></rect><rect x="17" y="7" width="1.02" height="1.02"></rect><rect x="21" y="7" width="1.02" height="1.02"></rect><rect x="23" y="7" width="1.02" height="1.02"></rect><rect x="24" y="7" width="1.02" height="1.02"></rect><rect x="25" y="7" width="1.02" height="1.02"></rect><rect x="27" y="7" width="1.02" height="1.02"></rect><rect x="3" y="8" width="1.02" height="1.02"></rect><rect x="9" y="8" width="1.02" height="1.02"></rect><rect x="11" y="8" width="1.02" height="1.02"></rect><rect x="12" y="8" width="1.02" height="1.02"></rect><rect x="14" y="8" width="1.02" height="1.02"></rect><rect x="15" y="8" width="1.02" height="1.02"></rect><rect x="16" y="8" width="1.02" height="1.02"></rect><rect x="17" y="8" width="1.02" height="1.02"></rect><rect x="19" y="8" width="1.02" height="1.02"></rect><rect x="21" y="8" width="1.02" height="1.02"></rect><rect x="27" y="8" width="1.02" height="1.02"></rect><rect x="3" y="9" width="1.02" height="1.02"></rect><rect x="4" y="9" width="1.02" height="1.02"></rect><rect x="5" y="9" width="1.02" height="1.02"></rect><rect x="6" y="9" width="1.02" height="1.02"></rect><rect x="7" y="9" width="1.02" height="1.02"></rect><rect x="8" y="9" width="1.02" height="1.02"></rect><rect x="9" y="9" width="1.02" height="1.02"></rect><rect x="11" y="9" width="1.02" height="1.02"></rect><rect x="13" y="9" width="1.02" height="1.02"></rect><rect x="15" y="9" width="1.02" height="1.02"></rect><rect x="17" y="9" width="1.02" height="1.02"></rect><rect x="19" y="9" width="1.02" height="1.02"></rect><rect x="21" y="9" width="1.02" height="1.02"></rect><rect x="22" y="9" width="1.02" height="1.02"></rect><rect x="23" y="9" width="1.02" height="1.02"></rect><rect x="24" y="9" width="1.02" height="1.02"></rect><rect x="25" y="9" width="1.02" height="1.02"></rect><rect x="26" y="9" width="1.02" height="1.02"></rect><rect x="27" y="9" width="1.02" height="1.02"></rect><rect x="12" y="10" width="1.02" height="1.02"></rect><rect x="15" y="10" width="1.02" height="1.02"></rect><rect x="18" y="10" width="1.02" height="1.02"></rect><rect x="19" y="10" width="1.02" height="1.02"></rect><rect x="3" y="11" width="1.02" height="1.02"></rect><rect x="5" y="11" width="1.02" height="1.02"></rect><rect x="9" y="11" width="1.02" height="1.02"></rect><rect x="10" y="11" width="1.02" height="1.02"></rect><rect x="12" y="11" width="1.02" height="1.02"></rect><rect x="13" y="11" width="1.02" height="1.02"></rect><rect x="14" y="11" width="1.02" height="1.02"></rect><rect x="15" y="11" width="1.02" height="1.02"></rect><rect x="19" y="11" width="1.02" height="1.02"></rect><rect x="22" y="11" width="1.02" height="1.02"></rect><rect x="25" y="11" width="1.02" height="1.02"></rect><rect x="27" y="11" width="1.02" height="1.02"></rect><rect x="3" y="12" width="1.02" height="1.02"></rect><rect x="8" y="12" width="1.02" height="1.02"></rect><rect x="10" y="12" width="1.02" height="1.02"></rect><rect x="14" y="12" width="1.02" height="1.02"></rect><rect x="15" y="12" width="1.02" height="1.02"></rect><rect x="18" y="12" width="1.02" height="1.02"></rect><rect x="19" y="12" width="1.02" height="1.02"></rect><rect x="21" y="12" width="1.02" height="1.02"></rect><rect x="24" y="12" width="1.02" height="1.02"></rect><rect x="26" y="12" width="1.02" height="1.02"></rect><rect x="27" y="12" width="1.02" height="1.02"></rect><rect x="3" y="13" width="1.02" height="1.02"></rect><rect x="7" y="13" width="1.02" height="1.02"></rect><rect x="8" y="13" width="1.02" height="1.02"></rect><rect x="9" y="13" width="1.02" height="1.02"></rect><rect x="10" y="13" width="1.02" height="1.02"></rect><rect x="11" y="13" width="1.02" height="1.02"></rect><rect x="13" y="13" width="1.02" height="1.02"></rect><rect x="16" y="13" width="1.02" height="1.02"></rect><rect x="17" y="13" width="1.02" height="1.02"></rect><rect x="18" y="13" width="1.02" height="1.02"></rect><rect x="22" y="13" width="1.02" height="1.02"></rect><rect x="23" y="13" width="1.02" height="1.02"></rect><rect x="24" y="13" width="1.02" height="1.02"></rect><rect x="25" y="13" width="1.02" height="1.02"></rect><rect x="27" y="13" width="1.02" height="1.02"></rect><rect x="3" y="14" width="1.02" height="1.02"></rect><rect x="6" y="14" width="1.02" height="1.02"></rect><rect x="10" y="14" width="1.02" height="1.02"></rect><rect x="11" y="14" width="1.02" height="1.02"></rect><rect x="12" y="14" width="1.02" height="1.02"></rect><rect x="13" y="14" width="1.02" height="1.02"></rect><rect x="14" y="14" width="1.02" height="1.02"></rect><rect x="15" y="14" width="1.02" height="1.02"></rect><rect x="17" y="14" width="1.02" height="1.02"></rect><rect x="18" y="14" width="1.02" height="1.02"></rect><rect x="21" y="14" width="1.02" height="1.02"></rect><rect x="23" y="14" width="1.02" height="1.02"></rect><rect x="24" y="14" width="1.02" height="1.02"></rect><rect x="3" y="15" width="1.02" height="1.02"></rect><rect x="6" y="15" width="1.02" height="1.02"></rect><rect x="7" y="15" width="1.02" height="1.02"></rect><rect x="8" y="15" width="1.02" height="1.02"></rect><rect x="9" y="15" width="1.02" height="1.02"></rect><rect x="12" y="15" width="1.02" height="1.02"></rect><rect x="13" y="15" width="1.02" height="1.02"></rect><rect x="18" y="15" width="1.02" height="1.02"></rect><rect x="21" y="15" width="1.02" height="1.02"></rect><rect x="27" y="15" width="1.02" height="1.02"></rect><rect x="6" y="16" width="1.02" height="1.02"></rect><rect x="8" y="16" width="1.02" height="1.02"></rect><rect x="10" y="16" width="1.02" height="1.02"></rect><rect x="11" y="16" width="1.02" height="1.02"></rect><rect x="17" y="16" width="1.02" height="1.02"></rect><rect x="18" y="16" width="1.02" height="1.02"></rect><rect x="19" y="16" width="1.02" height="1.02"></rect><rect x="21" y="16" width="1.02" height="1.02"></rect><rect x="22" y="16" width="1.02" height="1.02"></rect><rect x="26" y="16" width="1.02" height="1.02"></rect><rect x="27" y="16" width="1.02" height="1.02"></rect><rect x="3" y="17" width="1.02" height="1.02"></rect><rect x="4" y="17" width="1.02" height="1.02"></rect><rect x="8" y="17" width="1.02" height="1.02"></rect><rect x="9" y="17" width="1.02" height="1.02"></rect><rect x="10" y="17" width="1.02" height="1.02"></rect><rect x="11" y="17" width="1.02" height="1.02"></rect><rect x="12" y="17" width="1.02" height="1.02"></rect><rect x="14" y="17" width="1.02" height="1.02"></rect><rect x="16" y="17" width="1.02" height="1.02"></rect><rect x="18" y="17" width="1.02" height="1.02"></rect><rect x="20" y="17" width="1.02" height="1.02"></rect><rect x="21" y="17" width="1.02" height="1.02"></rect><rect x="24" y="17" width="1.02" height="1.02"></rect><rect x="25" y="17" width="1.02" height="1.02"></rect><rect x="27" y="17" width="1.02" height="1.02"></rect><rect x="5" y="18" width="1.02" height="1.02"></rect><rect x="7" y="18" width="1.02" height="1.02"></rect><rect x="8" y="18" width="1.02" height="1.02"></rect><rect x="10" y="18" width="1.02" height="1.02"></rect><rect x="12" y="18" width="1.02" height="1.02"></rect><rect x="17" y="18" width="1.02" height="1.02"></rect><rect x="18" y="18" width="1.02" height="1.02"></rect><rect x="19" y="18" width="1.02" height="1.02"></rect><rect x="20" y="18" width="1.02" height="1.02"></rect><rect x="21" y="18" width="1.02" height="1.02"></rect><rect x="22" y="18" width="1.02" height="1.02"></rect><rect x="23" y="18" width="1.02" height="1.02"></rect><rect x="24" y="18" width="1.02" height="1.02"></rect><rect x="3" y="19" width="1.02" height="1.02"></rect><rect x="4" y="19" width="1.02" height="1.02"></rect><rect x="6" y="19" width="1.02" height="1.02"></rect><rect x="7" y="19" width="1.02" height="1.02"></rect><rect x="8" y="19" width="1.02" height="1.02"></rect><rect x="9" y="19" width="1.02" height="1.02"></rect><rect x="11" y="19" width="1.02" height="1.02"></rect><rect x="12" y="19" width="1.02" height="1.02"></rect><rect x="14" y="19" width="1.02" height="1.02"></rect><rect x="15" y="19" width="1.02" height="1.02"></rect><rect x="19" y="19" width="1.02" height="1.02"></rect><rect x="20" y="19" width="1.02" height="1.02"></rect><rect x="21" y="19" width="1.02" height="1.02"></rect><rect x="22" y="19" width="1.02" height="1.02"></rect><rect x="23" y="19" width="1.02" height="1.02"></rect><rect x="26" y="19" width="1.02" height="1.02"></rect><rect x="11" y="20" width="1.02" height="1.02"></rect><rect x="12" y="20" width="1.02" height="1.02"></rect><rect x="13" y="20" width="1.02" height="1.02"></rect><rect x="15" y="20" width="1.02" height="1.02"></rect><rect x="17" y="20" width="1.02" height="1.02"></rect><rect x="19" y="20" width="1.02" height="1.02"></rect><rect x="23" y="20" width="1.02" height="1.02"></rect><rect x="27" y="20" width="1.02" height="1.02"></rect><rect x="3" y="21" width="1.02" height="1.02"></rect><rect x="4" y="21" width="1.02" height="1.02"></rect><rect x="5" y="21" width="1.02" height="1.02"></rect><rect x="6" y="21" width="1.02" height="1.02"></rect><rect x="7" y="21" width="1.02" height="1.02"></rect><rect x="8" y="21" width="1.02" height="1.02"></rect><rect x="9" y="21" width="1.02" height="1.02"></rect><rect x="11" y="21" width="1.02" height="1.02"></rect><rect x="12" y="21" width="1.02" height="1.02"></rect><rect x="13" y="21" width="1.02" height="1.02"></rect><rect x="15" y="21" width="1.02" height="1.02"></rect><rect x="16" y="21" width="1.02" height="1.02"></rect><rect x="19" y="21" width="1.02" height="1.02"></rect><rect x="21" y="21" width="1.02" height="1.02"></rect><rect x="23" y="21" width="1.02" height="1.02"></rect><rect x="27" y="21" width="1.02" height="1.02"></rect><rect x="3" y="22" width="1.02" height="1.02"></rect><rect x="9" y="22" width="1.02" height="1.02"></rect><rect x="12" y="22" width="1.02" height="1.02"></rect><rect x="13" y="22" width="1.02" height="1.02"></rect><rect x="14" y="22" width="1.02" height="1.02"></rect><rect x="15" y="22" width="1.02" height="1.02"></rect><rect x="19" y="22" width="1.02" height="1.02"></rect><rect x="23" y="22" width="1.02" height="1.02"></rect><rect x="27" y="22" width="1.02" height="1.02"></rect><rect x="3" y="23" width="1.02" height="1.02"></rect><rect x="5" y="23" width="1.02" height="1.02"></rect><rect x="6" y="23" width="1.02" height="1.02"></rect><rect x="7" y="23" width="1.02" height="1.02"></rect><rect x="9" y="23" width="1.02" height="1.02"></rect><rect x="13" y="23" width="1.02" height="1.02"></rect><rect x="16" y="23" width="1.02" height="1.02"></rect><rect x="17" y="23" width="1.02" height="1.02"></rect><rect x="18" y="23" width="1.02" height="1.02"></rect><rect x="19" y="23" width="1.02" height="1.02"></rect><rect x="20" y="23" width="1.02" height="1.02"></rect><rect x="21" y="23" width="1.02" height="1.02"></rect><rect x="22" y="23" width="1.02" height="1.02"></rect><rect x="23" y="23" width="1.02" height="1.02"></rect><rect x="27" y="23" width="1.02" height="1.02"></rect><rect x="3" y="24" width="1.02" height="1.02"></rect><rect x="5" y="24" width="1.02" height="1.02"></rect><rect x="6" y="24" width="1.02" height="1.02"></rect><rect x="7" y="24" width="1.02" height="1.02"></rect><rect x="9" y="24" width="1.02" height="1.02"></rect><rect x="13" y="24" width="1.02" height="1.02"></rect><rect x="16" y="24" width="1.02" height="1.02"></rect><rect x="18" y="24" width="1.02" height="1.02"></rect><rect x="20" y="24" width="1.02" height="1.02"></rect><rect x="23" y="24" width="1.02" height="1.02"></rect><rect x="25" y="24" width="1.02" height="1.02"></rect><rect x="26" y="24" width="1.02" height="1.02"></rect><rect x="3" y="25" width="1.02" height="1.02"></rect><rect x="5" y="25" width="1.02" height="1.02"></rect><rect x="6" y="25" width="1.02" height="1.02"></rect><rect x="7" y="25" width="1.02" height="1.02"></rect><rect x="9" y="25" width="1.02" height="1.02"></rect><rect x="11" y="25" width="1.02" height="1.02"></rect><rect x="12" y="25" width="1.02" height="1.02"></rect><rect x="13" y="25" width="1.02" height="1.02"></rect><rect x="14" y="25" width="1.02" height="1.02"></rect><rect x="20" y="25" width="1.02" height="1.02"></rect><rect x="22" y="25" width="1.02" height="1.02"></rect><rect x="23" y="25" width="1.02" height="1.02"></rect><rect x="24" y="25" width="1.02" height="1.02"></rect><rect x="26" y="25" width="1.02" height="1.02"></rect><rect x="27" y="25" width="1.02" height="1.02"></rect><rect x="3" y="26" width="1.02" height="1.02"></rect><rect x="9" y="26" width="1.02" height="1.02"></rect><rect x="12" y="26" width="1.02" height="1.02"></rect><rect x="13" y="26" width="1.02" height="1.02"></rect><rect x="16" y="26" width="1.02" height="1.02"></rect><rect x="19" y="26" width="1.02" height="1.02"></rect><rect x="20" y="26" width="1.02" height="1.02"></rect><rect x="21" y="26" width="1.02" height="1.02"></rect><rect x="22" y="26" width="1.02" height="1.02"></rect><rect x="23" y="26" width="1.02" height="1.02"></rect><rect x="3" y="27" width="1.02" height="1.02"></rect><rect x="4" y="27" width="1.02" height="1.02"></rect><rect x="5" y="27" width="1.02" height="1.02"></rect><rect x="6" y="27" width="1.02" height="1.02"></rect><rect x="7" y="27" width="1.02" height="1.02"></rect><rect x="8" y="27" width="1.02" height="1.02"></rect><rect x="9" y="27" width="1.02" height="1.02"></rect><rect x="11" y="27" width="1.02" height="1.02"></rect><rect x="13" y="27" width="1.02" height="1.02"></rect><rect x="14" y="27" width="1.02" height="1.02"></rect><rect x="15" y="27" width="1.02" height="1.02"></rect><rect x="16" y="27" width="1.02" height="1.02"></rect><rect x="19" y="27" width="1.02" height="1.02"></rect><rect x="24" y="27" width="1.02" height="1.02"></rect><rect x="27" y="27" width="1.02" height="1.02"></rect></g></svg>